<svg width="154" height="50" viewBox="0 0 154 50" fill="none" xmlns="http://www.w3.org/2000/svg">
<path d="M59.54 26.462L60.908 25.526C61.304 26.462 62.744 27.524 64.598 27.524C66.398 27.524 67.1 26.84 67.1 25.706C67.1 24.356 64.958 24.014 63.968 23.708C62.906 23.402 59.972 22.88 59.972 20.432C59.972 18.128 61.952 17.084 64.418 17.084C66.614 17.084 68.378 18.218 68.828 19.478L67.46 20.324C67.136 19.55 65.858 18.776 64.238 18.776C62.708 18.776 61.88 19.352 61.88 20.342C61.88 21.62 63.86 21.926 64.94 22.232C65.912 22.538 68.972 23.186 68.972 25.634C68.972 27.974 67.226 29.216 64.418 29.216C61.844 29.216 60.116 27.938 59.54 26.462ZM71.7173 19.136C71.2493 19.136 70.7633 18.758 70.7633 18.182C70.7633 17.588 71.2493 17.264 71.7173 17.264C72.1853 17.264 72.6533 17.588 72.6533 18.182C72.6533 18.758 72.1853 19.136 71.7173 19.136ZM72.5273 29H70.9073V20.72H72.5273V29ZM80.7103 20.72V21.962L76.4983 27.65H80.6383V29H74.4463V27.758L78.6582 22.07H74.5183V20.72H80.7103ZM85.9879 20.576C88.3999 20.576 89.9659 22.394 89.9659 24.86V25.328H83.4499C83.6119 26.804 84.6559 27.758 86.0959 27.758C87.2839 27.758 88.0399 27.218 88.4359 26.642L89.5699 27.452C88.8499 28.496 87.6079 29.162 86.0959 29.162C83.5759 29.162 81.8839 27.326 81.8839 24.86C81.8839 22.394 83.5039 20.576 85.9879 20.576ZM85.9879 21.872C84.5659 21.872 83.6479 22.826 83.4499 24.266H88.4539C88.2559 22.88 87.3739 21.872 85.9879 21.872ZM104.785 29.072H103.183L102.373 28.064C101.545 28.766 100.483 29.18 99.4025 29.18C96.8825 29.18 95.4605 27.812 95.4605 25.94C95.4605 24.608 96.1445 23.618 97.9625 22.412C97.8545 22.286 97.7825 22.178 97.7285 22.124C96.9365 21.152 96.5045 20.414 96.5045 19.55C96.5045 18.272 97.5845 17.12 99.3305 17.12C101.059 17.12 102.121 18.308 102.121 19.568C102.121 21.242 100.735 22.16 99.7625 22.754C100.483 23.672 101.455 24.896 102.391 26.066C102.715 25.49 102.913 24.77 102.913 23.942V23.708H104.191V23.942C104.191 25.166 103.831 26.264 103.219 27.11C103.867 27.92 104.425 28.64 104.785 29.072ZM99.3305 18.272C98.5025 18.272 97.8365 18.848 97.8365 19.658C97.8365 20.27 98.1965 20.738 98.7365 21.458L98.9885 21.782C99.8525 21.26 100.807 20.594 100.807 19.658C100.807 18.83 100.141 18.272 99.3305 18.272ZM99.4205 27.884C100.177 27.884 100.951 27.596 101.581 27.056L98.7365 23.42C97.1705 24.536 97.0085 25.292 97.0085 25.94C97.0085 27.002 97.8185 27.884 99.4205 27.884ZM118.283 18.884H112.235V22.574H117.941V24.176H112.235V29H110.543V17.3H118.283V18.884ZM121.252 19.136C120.784 19.136 120.298 18.758 120.298 18.182C120.298 17.588 120.784 17.264 121.252 17.264C121.72 17.264 122.188 17.588 122.188 18.182C122.188 18.758 121.72 19.136 121.252 19.136ZM122.062 29H120.442V20.72H122.062V29ZM128.481 21.962H126.555V26.642C126.555 27.542 127.131 27.704 127.707 27.704H128.391V29H127.077C125.691 29 124.935 28.226 124.935 26.876V21.962H123.801V20.72H124.935V18.182H126.555V20.72H128.481V21.962Z" fill="#3C4242"/>
<circle cx="22" cy="22" r="22" fill="#F6F6F6"/>
<path d="M25.6349 30H18.3651C17.3613 30 16.5476 29.2007 16.5476 28.2147V21.5796C16.5476 21.0634 15.9122 20.8049 15.5406 21.1699C15.2014 21.5032 14.6205 21.3203 14.5417 20.8555L14.0248 17.8091C13.9021 17.0857 14.2422 16.3621 14.8825 15.9847L18.1965 14.0315C18.293 13.9746 18.4175 13.9966 18.4878 14.0829C20.2884 16.2938 23.7116 16.2938 25.5122 14.0829C25.5825 13.9966 25.707 13.9746 25.8035 14.0315L29.1175 15.9847C29.7578 16.3621 30.0979 17.0857 29.9752 17.8091L29.4583 20.8555C29.3795 21.3203 28.7986 21.5032 28.4594 21.1699C28.0878 20.8049 27.4524 21.0634 27.4524 21.5796V28.2147C27.4524 29.2007 26.6387 30 25.6349 30Z" stroke="#3C4242" stroke-width="1.1"/>
</svg>
