<svg width="246" height="50" viewBox="0 0 246 50" fill="none" xmlns="http://www.w3.org/2000/svg">
<path d="M67.64 18.884H61.592V22.574H67.298V24.176H61.592V29H59.9V17.3H67.64V18.884ZM71.0122 22.25C71.6602 21.116 72.7762 20.612 73.9282 20.594V22.124C72.8122 22.142 71.0122 22.628 71.0122 24.752V29H69.3922V20.72H71.0122V22.25ZM78.8336 20.576C81.2456 20.576 82.8116 22.394 82.8116 24.86V25.328H76.2956C76.4576 26.804 77.5016 27.758 78.9416 27.758C80.1296 27.758 80.8856 27.218 81.2816 26.642L82.4156 27.452C81.6956 28.496 80.4536 29.162 78.9416 29.162C76.4216 29.162 74.7296 27.326 74.7296 24.86C74.7296 22.394 76.3496 20.576 78.8336 20.576ZM78.8336 21.872C77.4116 21.872 76.4936 22.826 76.2956 24.266H81.2996C81.1016 22.88 80.2196 21.872 78.8336 21.872ZM88.5367 20.576C90.9487 20.576 92.5147 22.394 92.5147 24.86V25.328H85.9987C86.1607 26.804 87.2047 27.758 88.6447 27.758C89.8327 27.758 90.5887 27.218 90.9847 26.642L92.1187 27.452C91.3987 28.496 90.1567 29.162 88.6447 29.162C86.1247 29.162 84.4327 27.326 84.4327 24.86C84.4327 22.394 86.0527 20.576 88.5367 20.576ZM88.5367 21.872C87.1147 21.872 86.1967 22.826 85.9987 24.266H91.0027C90.8047 22.88 89.9227 21.872 88.5367 21.872ZM97.6494 26.462L99.0174 25.526C99.4134 26.462 100.853 27.524 102.707 27.524C104.507 27.524 105.209 26.84 105.209 25.706C105.209 24.356 103.067 24.014 102.077 23.708C101.015 23.402 98.0814 22.88 98.0814 20.432C98.0814 18.128 100.061 17.084 102.527 17.084C104.723 17.084 106.487 18.218 106.937 19.478L105.569 20.324C105.245 19.55 103.967 18.776 102.347 18.776C100.817 18.776 99.9894 19.352 99.9894 20.342C99.9894 21.62 101.969 21.926 103.049 22.232C104.021 22.538 107.081 23.186 107.081 25.634C107.081 27.974 105.335 29.216 102.527 29.216C99.9534 29.216 98.2254 27.938 97.6494 26.462ZM113.049 20.594C114.651 20.594 116.325 21.512 116.325 23.906V29H114.705V24.14C114.705 22.61 113.625 21.98 112.581 21.98C111.555 21.98 110.493 22.61 110.493 24.14V29H108.873V17.3H110.493V21.728C111.123 20.918 112.095 20.594 113.049 20.594ZM119.442 19.136C118.974 19.136 118.488 18.758 118.488 18.182C118.488 17.588 118.974 17.264 119.442 17.264C119.91 17.264 120.378 17.588 120.378 18.182C120.378 18.758 119.91 19.136 119.442 19.136ZM120.252 29H118.632V20.72H120.252V29ZM126.995 20.594C129.335 20.594 131.009 22.412 131.009 24.878C131.009 27.362 129.335 29.144 126.995 29.144C125.717 29.144 124.763 28.604 124.151 27.74V32.312H122.531V20.72H124.151V22.016C124.763 21.134 125.717 20.594 126.995 20.594ZM126.779 27.614C128.381 27.614 129.425 26.462 129.425 24.878C129.425 23.276 128.381 22.124 126.779 22.124C125.195 22.124 124.151 23.276 124.151 24.878C124.151 26.462 125.195 27.614 126.779 27.614ZM137.366 20.594C139.706 20.594 141.38 22.412 141.38 24.878C141.38 27.362 139.706 29.144 137.366 29.144C136.088 29.144 135.134 28.604 134.522 27.74V32.312H132.902V20.72H134.522V22.016C135.134 21.134 136.088 20.594 137.366 20.594ZM137.15 27.614C138.752 27.614 139.796 26.462 139.796 24.878C139.796 23.276 138.752 22.124 137.15 22.124C135.566 22.124 134.522 23.276 134.522 24.878C134.522 26.462 135.566 27.614 137.15 27.614ZM144.227 19.136C143.759 19.136 143.273 18.758 143.273 18.182C143.273 17.588 143.759 17.264 144.227 17.264C144.695 17.264 145.163 17.588 145.163 18.182C145.163 18.758 144.695 19.136 144.227 19.136ZM145.037 29H143.417V20.72H145.037V29ZM151.492 20.594C153.094 20.594 154.768 21.512 154.768 23.906V29H153.148V24.14C153.148 22.61 152.068 21.98 151.024 21.98C149.998 21.98 148.936 22.61 148.936 24.14V29H147.316V20.72H148.936V21.728C149.566 20.918 150.538 20.594 151.492 20.594ZM163.519 20.72H165.139V28.388C165.139 30.782 163.483 32.456 160.765 32.456C159.307 32.456 158.065 31.88 157.309 30.98L158.371 30.08C159.037 30.8 159.919 31.07 160.765 31.07C162.043 31.07 163.519 30.314 163.519 28.388V27.722C162.907 28.586 161.935 29.144 160.657 29.144C158.335 29.144 156.661 27.326 156.661 24.86C156.661 22.394 158.335 20.594 160.657 20.594C161.935 20.594 162.907 21.134 163.519 22.016V20.72ZM160.873 27.614C162.475 27.614 163.519 26.444 163.519 24.86C163.519 23.258 162.475 22.124 160.873 22.124C159.289 22.124 158.245 23.258 158.245 24.86C158.245 26.444 159.289 27.614 160.873 27.614ZM180.23 29.072H178.628L177.818 28.064C176.99 28.766 175.928 29.18 174.848 29.18C172.328 29.18 170.906 27.812 170.906 25.94C170.906 24.608 171.59 23.618 173.408 22.412C173.3 22.286 173.228 22.178 173.174 22.124C172.382 21.152 171.95 20.414 171.95 19.55C171.95 18.272 173.03 17.12 174.776 17.12C176.504 17.12 177.566 18.308 177.566 19.568C177.566 21.242 176.18 22.16 175.208 22.754C175.928 23.672 176.9 24.896 177.836 26.066C178.16 25.49 178.358 24.77 178.358 23.942V23.708H179.636V23.942C179.636 25.166 179.276 26.264 178.664 27.11C179.312 27.92 179.87 28.64 180.23 29.072ZM174.776 18.272C173.948 18.272 173.282 18.848 173.282 19.658C173.282 20.27 173.642 20.738 174.182 21.458L174.434 21.782C175.298 21.26 176.252 20.594 176.252 19.658C176.252 18.83 175.586 18.272 174.776 18.272ZM174.866 27.884C175.622 27.884 176.396 27.596 177.026 27.056L174.182 23.42C172.616 24.536 172.454 25.292 172.454 25.94C172.454 27.002 173.264 27.884 174.866 27.884ZM195.114 29H193.152L190.218 24.626H187.68V29H185.988V17.3H191.46C193.224 17.3 194.88 18.686 194.88 20.954C194.88 22.934 193.62 24.248 192.144 24.554L195.114 29ZM187.68 18.938V22.988H191.208C192.342 22.988 193.206 22.124 193.206 20.954C193.206 19.802 192.342 18.938 191.208 18.938H187.68ZM200.123 20.576C202.535 20.576 204.101 22.394 204.101 24.86V25.328H197.585C197.747 26.804 198.791 27.758 200.231 27.758C201.419 27.758 202.175 27.218 202.571 26.642L203.705 27.452C202.985 28.496 201.743 29.162 200.231 29.162C197.711 29.162 196.019 27.326 196.019 24.86C196.019 22.394 197.639 20.576 200.123 20.576ZM200.123 21.872C198.701 21.872 197.783 22.826 197.585 24.266H202.589C202.391 22.88 201.509 21.872 200.123 21.872ZM209.956 21.962H208.03V26.642C208.03 27.542 208.606 27.704 209.182 27.704H209.866V29H208.552C207.166 29 206.41 28.226 206.41 26.876V21.962H205.276V20.72H206.41V18.182H208.03V20.72H209.956V21.962ZM217.502 20.72H219.122V29H217.502V28.01C216.872 28.82 215.9 29.144 214.946 29.144C213.344 29.144 211.67 28.208 211.67 25.814V20.72H213.29V25.58C213.29 27.11 214.37 27.74 215.414 27.74C216.44 27.74 217.502 27.11 217.502 25.58V20.72ZM222.905 22.25C223.553 21.116 224.669 20.612 225.821 20.594V22.124C224.705 22.142 222.905 22.628 222.905 24.752V29H221.285V20.72H222.905V22.25ZM231.613 20.594C233.215 20.594 234.889 21.512 234.889 23.906V29H233.269V24.14C233.269 22.61 232.189 21.98 231.145 21.98C230.119 21.98 229.057 22.61 229.057 24.14V29H227.437V20.72H229.057V21.728C229.687 20.918 230.659 20.594 231.613 20.594ZM236.602 27.272L237.736 26.552C237.988 27.218 238.996 27.902 240.202 27.902C241.318 27.902 241.894 27.524 241.894 26.714C241.894 25.796 240.544 25.58 239.806 25.364C239.086 25.148 236.944 24.698 236.944 22.952C236.944 21.332 238.348 20.54 240.13 20.54C241.84 20.54 243.01 21.314 243.406 22.232L242.308 22.898C242.056 22.358 241.138 21.818 240.076 21.818C239.05 21.818 238.51 22.232 238.51 22.88C238.51 23.744 239.77 23.942 240.508 24.158C241.228 24.374 243.46 24.878 243.46 26.66C243.46 28.334 242.254 29.234 240.184 29.234C238.258 29.234 237.016 28.352 236.602 27.272Z" fill="#3C4242"/>
<circle cx="22" cy="22" r="22" fill="#F6F6F6"/>
<path d="M18.4444 28.2222C18.4444 29.2041 17.6485 30 16.6667 30C15.6848 30 14.8889 29.2041 14.8889 28.2222C14.8889 27.2404 15.6848 26.4444 16.6667 26.4444C17.6485 26.4444 18.4444 27.2404 18.4444 28.2222ZM18.4444 28.2222H25.5556C26.5374 28.2222 27.3333 27.4263 27.3333 26.4444V22.8889M25.5556 15.7778C25.5556 16.7596 26.3515 17.5556 27.3333 17.5556C28.3152 17.5556 29.1111 16.7596 29.1111 15.7778C29.1111 14.7959 28.3152 14 27.3333 14C26.3515 14 25.5556 14.7959 25.5556 15.7778ZM25.5556 15.7778H18.4444C17.4626 15.7778 16.6667 16.5737 16.6667 17.5556V21.1111M30 24.6667L27.6476 22.1398C27.474 21.9534 27.1926 21.9534 27.0191 22.1398L24.6667 24.6667M19.3333 19.3333L16.9809 21.8602C16.8074 22.0466 16.526 22.0466 16.3524 21.8602L14 19.3333" stroke="#3C4242" stroke-width="1.1" stroke-linecap="round"/>
</svg>
