<svg width="113" height="22" viewBox="0 0 113 22" fill="none" xmlns="http://www.w3.org/2000/svg">
<path d="M0.54 15.462L1.908 14.526C2.304 15.462 3.744 16.524 5.598 16.524C7.398 16.524 8.1 15.84 8.1 14.706C8.1 13.356 5.958 13.014 4.968 12.708C3.906 12.402 0.972 11.88 0.972 9.432C0.972 7.128 2.952 6.084 5.418 6.084C7.614 6.084 9.378 7.218 9.828 8.478L8.46 9.324C8.136 8.55 6.858 7.776 5.238 7.776C3.708 7.776 2.88 8.352 2.88 9.342C2.88 10.62 4.86 10.926 5.94 11.232C6.912 11.538 9.972 12.186 9.972 14.634C9.972 16.974 8.226 18.216 5.418 18.216C2.844 18.216 1.116 16.938 0.54 15.462ZM12.7173 8.136C12.2493 8.136 11.7633 7.758 11.7633 7.182C11.7633 6.588 12.2493 6.264 12.7173 6.264C13.1853 6.264 13.6533 6.588 13.6533 7.182C13.6533 7.758 13.1853 8.136 12.7173 8.136ZM13.5273 18H11.9073V9.72H13.5273V18ZM21.7103 9.72V10.962L17.4983 16.65H21.6383V18H15.4463V16.758L19.6582 11.07H15.5183V9.72H21.7103ZM26.9879 9.576C29.3999 9.576 30.9659 11.394 30.9659 13.86V14.328H24.4499C24.6119 15.804 25.6559 16.758 27.0959 16.758C28.2839 16.758 29.0399 16.218 29.4359 15.642L30.5699 16.452C29.8499 17.496 28.6079 18.162 27.0959 18.162C24.5759 18.162 22.8839 16.326 22.8839 13.86C22.8839 11.394 24.5039 9.576 26.9879 9.576ZM26.9879 10.872C25.5659 10.872 24.6479 11.826 24.4499 13.266H29.4539C29.2559 11.88 28.3739 10.872 26.9879 10.872ZM47.7825 12.42C47.6565 15.75 45.5505 18.144 42.1665 18.144C38.6925 18.144 36.2805 15.624 36.2805 12.15C36.2805 8.676 38.6925 6.156 42.1665 6.156C44.2365 6.156 45.8925 7.056 46.9005 8.496L45.5145 9.486C44.7405 8.388 43.5165 7.83 42.1665 7.83C39.6465 7.83 37.9725 9.648 37.9725 12.15C37.9725 14.634 39.6465 16.452 42.1665 16.452C44.0925 16.452 45.6045 15.246 45.8745 13.248H42.0765V11.7H47.7825V12.42ZM55.5992 9.72H57.2192V18H55.5992V17.01C54.9692 17.82 53.9972 18.144 53.0432 18.144C51.4412 18.144 49.7672 17.208 49.7672 14.814V9.72H51.3872V14.58C51.3872 16.11 52.4672 16.74 53.5112 16.74C54.5372 16.74 55.5992 16.11 55.5992 14.58V9.72ZM60.3364 8.136C59.8684 8.136 59.3824 7.758 59.3824 7.182C59.3824 6.588 59.8684 6.264 60.3364 6.264C60.8044 6.264 61.2724 6.588 61.2724 7.182C61.2724 7.758 60.8044 8.136 60.3364 8.136ZM61.1464 18H59.5264V9.72H61.1464V18ZM70.0134 6.3H71.6334V18H70.0134V16.722C69.4014 17.604 68.4474 18.144 67.1694 18.144C64.8294 18.144 63.1554 16.326 63.1554 13.86C63.1554 11.358 64.8294 9.594 67.1694 9.594C68.4474 9.594 69.4014 10.134 70.0134 10.998V6.3ZM67.3854 16.614C68.9694 16.614 70.0134 15.444 70.0134 13.86C70.0134 12.258 68.9694 11.124 67.3854 11.124C65.7834 11.124 64.7394 12.258 64.7394 13.86C64.7394 15.444 65.7834 16.614 67.3854 16.614ZM77.6305 9.576C80.0425 9.576 81.6085 11.394 81.6085 13.86V14.328H75.0925C75.2545 15.804 76.2985 16.758 77.7385 16.758C78.9265 16.758 79.6825 16.218 80.0785 15.642L81.2125 16.452C80.4925 17.496 79.2505 18.162 77.7385 18.162C75.2185 18.162 73.5265 16.326 73.5265 13.86C73.5265 11.394 75.1465 9.576 77.6305 9.576ZM77.6305 10.872C76.2085 10.872 75.2905 11.826 75.0925 13.266H80.0965C79.8985 11.88 79.0165 10.872 77.6305 10.872Z" fill="#807D7E"/>
<path d="M98 11H111M106 5L111.293 10.2929C111.683 10.6834 111.683 11.3166 111.293 11.7071L106 17" stroke="#807D7E" stroke-width="1.8" stroke-linecap="round"/>
</svg>
