<svg width="159" height="22" viewBox="0 0 159 22" fill="none" xmlns="http://www.w3.org/2000/svg">
<path d="M8.388 6.3H9.756V13.932C9.756 16.308 8.136 18.144 5.346 18.144C2.556 18.144 0.954 16.308 0.954 13.932V6.3H2.304V13.806C2.304 15.732 3.528 16.812 5.346 16.812C7.164 16.812 8.388 15.732 8.388 13.806V6.3ZM11.5786 16.29L12.5146 15.732C12.7846 16.47 13.7926 17.136 15.0886 17.136C16.3666 17.136 17.0326 16.668 17.0326 15.732C17.0326 14.688 15.5386 14.454 14.7646 14.238C13.9906 14.022 11.8846 13.626 11.8846 11.898C11.8846 10.35 13.2166 9.558 15.0166 9.558C16.6906 9.558 17.8426 10.296 18.2026 11.196L17.2846 11.736C17.0506 11.142 16.1146 10.602 14.9806 10.602C13.8106 10.602 13.1626 11.07 13.1626 11.844C13.1626 12.816 14.5306 13.032 15.3046 13.248C16.0786 13.464 18.2926 13.914 18.2926 15.696C18.2926 17.352 17.1226 18.216 15.0706 18.216C13.1986 18.216 11.9926 17.388 11.5786 16.29ZM23.9657 9.576C26.3417 9.576 27.9257 11.394 27.9257 13.86V14.274H21.1397C21.3017 15.93 22.4357 17.028 24.0737 17.028C25.2977 17.028 26.1437 16.47 26.6117 15.768L27.5297 16.434C26.8097 17.496 25.5857 18.162 24.0737 18.162C21.5537 18.162 19.8797 16.326 19.8797 13.86C19.8797 11.394 21.4817 9.576 23.9657 9.576ZM23.9657 10.656C22.3457 10.656 21.3197 11.754 21.1397 13.374H26.7197C26.5397 11.808 25.5137 10.656 23.9657 10.656ZM31.2363 11.25C31.8663 10.116 32.9823 9.612 34.1523 9.594V10.836C32.8743 10.854 31.2363 11.52 31.2363 13.536V18H29.9403V9.72H31.2363V11.25ZM45.8393 11.97C45.3713 11.322 44.5973 10.836 43.4633 10.836C41.6813 10.836 40.5113 12.096 40.5113 13.86C40.5113 15.624 41.6813 16.902 43.4633 16.902C44.5973 16.902 45.3533 16.416 45.8393 15.768L46.7933 16.47C46.0733 17.514 44.8853 18.144 43.4273 18.144C40.9433 18.144 39.2333 16.344 39.2333 13.86C39.2333 11.376 40.9433 9.594 43.4273 9.594C44.8853 9.594 46.0733 10.224 46.7933 11.25L45.8393 11.97ZM52.4101 18.162C49.9261 18.162 48.1981 16.326 48.1981 13.86C48.1981 11.376 49.9261 9.576 52.4101 9.576C54.8941 9.576 56.6221 11.376 56.6221 13.86C56.6221 16.326 54.8941 18.162 52.4101 18.162ZM52.4101 16.902C54.1561 16.902 55.3081 15.606 55.3081 13.86C55.3081 12.114 54.1561 10.836 52.4101 10.836C50.6641 10.836 49.4941 12.114 49.4941 13.86C49.4941 15.606 50.6641 16.902 52.4101 16.902ZM67.9518 9.594C69.4818 9.594 71.0298 10.458 71.0298 12.906V18H69.7338V13.05C69.7338 11.394 68.6718 10.764 67.5918 10.764C66.5118 10.764 65.4858 11.394 65.4858 13.05V18H64.1718V13.05C64.1718 11.394 63.1098 10.764 62.0478 10.764C60.9678 10.764 59.9238 11.394 59.9238 13.05V18H58.6278V9.72H59.9238V10.782C60.5178 9.954 61.4538 9.594 62.3898 9.594C63.4878 9.594 64.5858 10.026 65.1258 11.142C65.7198 10.008 66.8718 9.594 67.9518 9.594ZM82.6296 9.594C84.1596 9.594 85.7076 10.458 85.7076 12.906V18H84.4116V13.05C84.4116 11.394 83.3496 10.764 82.2696 10.764C81.1896 10.764 80.1636 11.394 80.1636 13.05V18H78.8496V13.05C78.8496 11.394 77.7876 10.764 76.7256 10.764C75.6456 10.764 74.6016 11.394 74.6016 13.05V18H73.3056V9.72H74.6016V10.782C75.1956 9.954 76.1316 9.594 77.0676 9.594C78.1656 9.594 79.2636 10.026 79.8036 11.142C80.3976 10.008 81.5496 9.594 82.6296 9.594ZM91.8173 9.576C94.1933 9.576 95.7773 11.394 95.7773 13.86V14.274H88.9913C89.1533 15.93 90.2873 17.028 91.9253 17.028C93.1493 17.028 93.9953 16.47 94.4633 15.768L95.3813 16.434C94.6613 17.496 93.4373 18.162 91.9253 18.162C89.4053 18.162 87.7313 16.326 87.7313 13.86C87.7313 11.394 89.3333 9.576 91.8173 9.576ZM91.8173 10.656C90.1973 10.656 89.1713 11.754 88.9913 13.374H94.5713C94.3913 11.808 93.3653 10.656 91.8173 10.656ZM101.752 9.594C103.408 9.594 105.046 10.566 105.046 12.906V18H103.75V13.086C103.75 11.502 102.634 10.728 101.41 10.728C100.168 10.728 99.0879 11.502 99.0879 13.086V18H97.7919V9.72H99.0879V10.836C99.7179 9.972 100.726 9.594 101.752 9.594ZM111.155 10.746H109.175V15.84C109.175 16.722 109.715 16.938 110.327 16.938H111.065V18H109.859C108.599 18 107.861 17.28 107.861 16.02V10.746H106.709V9.72H107.861V7.2H109.175V9.72H111.155V10.746ZM112.512 16.29L113.448 15.732C113.718 16.47 114.726 17.136 116.022 17.136C117.3 17.136 117.966 16.668 117.966 15.732C117.966 14.688 116.472 14.454 115.698 14.238C114.924 14.022 112.818 13.626 112.818 11.898C112.818 10.35 114.15 9.558 115.95 9.558C117.624 9.558 118.776 10.296 119.136 11.196L118.218 11.736C117.984 11.142 117.048 10.602 115.914 10.602C114.744 10.602 114.096 11.07 114.096 11.844C114.096 12.816 115.464 13.032 116.238 13.248C117.012 13.464 119.226 13.914 119.226 15.696C119.226 17.352 118.056 18.216 116.004 18.216C114.132 18.216 112.926 17.388 112.512 16.29Z" fill="#807D7E"/>
<rect x="136" y="1" width="20" height="20" rx="4" fill="#8A33FD"/>
<path d="M141.607 14.22L143.037 12.96C143.877 12.24 145.107 11.21 145.107 10.34C145.107 9.71 144.647 9.3 143.817 9.3C143.107 9.3 142.557 9.72 142.417 10.18L141.567 9.8C141.767 9.16 142.577 8.41 143.817 8.41C145.197 8.41 146.077 9.13 146.077 10.29C146.077 11.53 144.757 12.63 144.107 13.21L143.057 14.14H146.067V15H141.607V14.22ZM149.031 8.5V15H148.091V9.36H146.631V8.5H149.031Z" fill="white"/>
</svg>
